<?xml version="1.0" encoding="utf-8"?>
<!-- Generator: Adobe Illustrator 18.1.0, SVG Export Plug-In . SVG Version: 6.00 Build 0)  -->
<svg version="1.1" id="Layer_1" xmlns="http://www.w3.org/2000/svg" xmlns:xlink="http://www.w3.org/1999/xlink" x="0px" y="0px"
	 viewBox="0 0 2632.5 648.8" enable-background="new 0 0 2632.5 648.8" xml:space="preserve">
<g>
	<path fill="#231F20" d="M2566.6,65.9v516.9H65.9V65.9H2566.6 M2632.5,0H0v648.8h2632.5V0L2632.5,0z"/>
</g>
<g>
	<path fill="#231F20" d="M405.2,450c-18.8,0-36.1-3.3-52.1-9.9c-16-6.6-29.7-15.6-41.3-26.9c-11.6-11.3-20.7-24.7-27.3-39.9
		c-6.6-15.3-9.9-31.6-9.9-49v-0.7c0-17.4,3.3-33.7,9.9-49.1c6.6-15.4,15.8-28.8,27.6-40.3c11.8-11.5,25.7-20.5,41.7-27.1
		c16-6.6,33.3-9.9,52.1-9.9c18.8,0,36.1,3.3,52.1,9.9c16,6.6,29.7,15.6,41.3,26.9c11.6,11.3,20.7,24.7,27.3,39.9
		c6.6,15.3,9.9,31.6,9.9,49v0.7c0,17.4-3.3,33.7-9.9,49.1c-6.6,15.4-15.8,28.8-27.6,40.3c-11.8,11.5-25.7,20.5-41.7,27.1
		C441.3,446.7,424,450,405.2,450z M405.8,389.3c9.3,0,17.8-1.7,25.4-5.2c7.7-3.5,14.2-8.2,19.5-14.1c5.3-5.9,9.5-12.8,12.5-20.7
		c3-7.9,4.5-16.2,4.5-25v-0.7c0-8.8-1.5-17.1-4.5-25c-3-7.9-7.3-14.8-12.9-20.8c-5.6-6-12.2-10.8-19.8-14.4
		c-7.7-3.6-16.1-5.4-25.4-5.4c-9.3,0-17.7,1.7-25.2,5.2c-7.5,3.5-14,8.2-19.5,14.1c-5.5,5.9-9.6,12.8-12.5,20.7
		c-2.9,7.9-4.4,16.2-4.4,25v0.7c0,8.8,1.5,17.1,4.5,25c3,7.9,7.3,14.8,12.7,20.8c5.5,6,12,10.8,19.7,14.4
		C388,387.5,396.5,389.3,405.8,389.3z"/>
	<path fill="#231F20" d="M571.5,202.1h104.2c15.3,0,29.2,1.9,41.7,5.7c12.5,3.8,23.1,9.4,31.9,16.7c8.8,7.3,15.6,16.3,20.3,26.9
		c4.7,10.6,7.1,22.7,7.1,36.1v0.7c0,14.4-2.6,27-7.8,37.8c-5.2,10.9-12.4,20-21.7,27.4c-9.3,7.4-20.3,13-33.2,16.7
		c-12.8,3.7-26.8,5.6-41.8,5.6h-33.3v69.4h-67.4V202.1z M670.8,323c12,0,21.5-2.8,28.3-8.5c6.8-5.7,10.2-13.4,10.2-23.2v-0.7
		c0-10.5-3.4-18.4-10.2-23.9c-6.8-5.5-16.4-8.2-28.6-8.2h-31.6V323H670.8z"/>
	<path fill="#231F20" d="M805.2,202.1h195.1v57.3H871.5v36.8h116.7v53.1H871.5v38.5h130.5v57.3H805.2V202.1z"/>
	<path fill="#231F20" d="M1036.8,202.1h63l100.2,128.5V202.1h66.3v243h-59.1l-104-133.3v133.3h-66.3V202.1z"/>
	<path fill="#231F20" d="M1309.3,202.1h114.9c18.7,0,34.6,2.3,47.6,6.9c13,4.6,23.5,11.1,31.6,19.4c14.4,13.9,21.5,32.8,21.5,56.6
		v0.7c0,18.8-4.5,34.3-13.5,46.5c-9,12.3-21.2,21.6-36.5,28.1l58,84.7h-77.8l-49-73.6h-0.7h-28.8v73.6h-67.3V202.1z M1421.1,318.8
		c11.6,0,20.5-2.6,26.7-7.8c6.2-5.2,9.4-12.2,9.4-21v-0.7c0-9.7-3.2-17-9.7-21.7c-6.5-4.7-15.4-7.1-26.7-7.1h-44.1v58.3H1421.1z"/>
	<path fill="#231F20" d="M1643,200.4h64.9l103.5,244.8h-72.2l-17.7-43.4h-93.7l-17.4,43.4h-70.8L1643,200.4z M1702,349.7l-27.1-69.1
		l-27.4,69.1H1702z"/>
	<path fill="#231F20" d="M1835,202.1h71.2l58,94.1l58-94.1h71.2v243h-67V305.6l-62,95.1h-1.4l-61.6-94.4v138.9H1835V202.1z"/>
	<path fill="#231F20" d="M2220.3,200.4h64.9l103.5,244.8h-72.2l-17.7-43.4h-93.7l-17.4,43.4h-70.8L2220.3,200.4z M2279.4,349.7
		l-27.1-69.1l-27.4,69.1H2279.4z"/>
</g>
</svg>
